<svg width="145" height="31" viewBox="0 0 145 31" fill="none" xmlns="http://www.w3.org/2000/svg">
<g id="main logo" clip-path="url(#clip0_45_61)">
<g id="Group">
<g id="Group_2">
<path id="Vector" d="M43.9785 14.0273C42.3738 14.0273 41.0735 15.3291 41.0735 16.9356C41.0735 18.542 42.3738 19.8438 43.9785 19.8438C45.5831 19.8438 46.8834 18.542 46.8834 16.9356C46.8834 15.3291 45.5831 14.0273 43.9785 14.0273Z" fill="#FD7859"/>
<path id="Vector_2" d="M46.3191 22.7077C45.6053 23.029 44.814 23.2062 43.9785 23.2062C43.143 23.2062 42.3517 23.029 41.6379 22.7077C40.9241 22.3864 40.0886 22.4972 39.5021 23.0234L34.926 27.1005C36.4366 28.4466 38.246 29.4658 40.2435 30.0364L42.6007 26.336C43.2426 25.3279 44.72 25.3279 45.3618 26.336L47.719 30.0364C49.7165 29.4658 51.5259 28.4466 53.0365 27.1005L48.4605 23.0234C47.8739 22.5027 47.0384 22.3919 46.3246 22.7077H46.3191Z" fill="#FD7859"/>
</g>
<path id="Vector_3" d="M41.6381 11.169C42.3519 10.8477 43.1431 10.6704 43.9787 10.6704C44.8142 10.6704 45.6054 10.8477 46.3192 11.169C47.033 11.4903 47.8686 11.3795 48.4551 10.8532L53.0311 6.77618C51.5205 5.43009 49.7112 4.41083 47.7136 3.84027L45.3564 7.54062C44.7146 8.5488 43.2372 8.5488 42.5953 7.54062L40.2382 3.84027C38.2406 4.41083 36.4312 5.43009 34.9207 6.77618L39.4967 10.8532C40.0832 11.3739 40.9187 11.4847 41.6325 11.169H41.6381Z" fill="#BF76DD"/>
<path id="Vector_4" d="M49.7387 14.5923C50.0596 15.3069 50.2367 16.0991 50.2367 16.9355C50.2367 17.772 50.0596 18.5641 49.7387 19.2787C49.4178 19.9933 49.5284 20.8297 50.0541 21.4169L54.1266 25.9981C55.4712 24.4858 56.4893 22.6744 57.0592 20.6746L53.363 18.3148C52.3559 17.6723 52.3559 16.1932 53.363 15.5506L57.0592 13.1908C56.4893 11.1911 55.4712 9.3797 54.1266 7.86743L50.0541 12.4486C49.5339 13.0357 49.4233 13.8722 49.7387 14.5868V14.5923Z" fill="#3BD0E0"/>
<path id="Vector_5" d="M38.2129 19.2787C37.892 18.5641 37.7149 17.772 37.7149 16.9355C37.7149 16.0991 37.892 15.3069 38.2129 14.5923C38.5338 13.8778 38.4231 13.0413 37.8975 12.4541L33.825 7.87299C32.4804 9.38526 31.4623 11.1967 30.8923 13.1964L34.5886 15.5562C35.5956 16.1988 35.5956 17.6778 34.5886 18.3204L30.8923 20.6802C31.4623 22.6799 32.4804 24.4913 33.825 26.0036L37.8975 21.4225C38.4176 20.8353 38.5283 19.9988 38.2129 19.2843V19.2787Z" fill="#25D3A0"/>
</g>
<g id="Group_3">
<path id="Vector_6" d="M7.12688 22.7243C7.19882 22.9846 7.34822 23.317 7.53635 23.317C7.79641 23.317 7.83515 22.9458 7.90708 22.7575L11.7693 8.30507C12.212 6.70971 13.4404 6.59338 14.1099 6.59338C14.7794 6.59338 16.041 6.70417 16.4837 8.30507L20.3459 22.7575C20.3847 22.9458 20.4953 23.317 20.7167 23.317C20.9048 23.317 21.0487 23.0179 21.1261 22.7243L25.2097 6.8205H28.253L23.4999 24.5855C23.1292 25.9593 22.3877 26.7404 20.8661 26.7404C19.2337 26.7404 18.4148 25.8097 18.1547 24.8071L14.4419 10.9474C14.37 10.7258 14.2925 10.2771 14.1099 10.2771C13.9605 10.2771 13.8498 10.7258 13.7779 10.9474L10.0651 24.8071C9.805 25.8097 9.06354 26.7404 7.39248 26.7404C5.83209 26.7404 5.12936 25.9593 4.75863 24.5855L0 6.81496H3.04331L7.12688 22.7187V22.7243Z" fill="black"/>
<path id="Vector_7" d="M61.2922 13.9165C61.2922 9.04735 63.666 6.8205 68.5298 6.8205H70.6822V9.34649H69.0887C65.6746 9.34649 64.413 11.0914 64.413 14.6976V26.5132H61.2922V13.9165Z" fill="black"/>
<path id="Vector_8" d="M72.5415 26.5133V0.5H75.6623V26.5133H72.5415ZM85.7937 26.5133L78.4787 19.3064C77.8867 18.7137 77.0677 17.5947 77.0677 16.3317C77.0677 15.0688 77.8092 14.1381 78.5175 13.4346L85.0523 6.82051H88.8758L80.8968 14.8084C80.5648 15.1408 80.2273 15.5895 80.2273 16.221C80.2273 16.93 80.7474 17.5615 81.2288 18.0434L89.8054 26.5188H85.7993L85.7937 26.5133Z" fill="black"/>
<path id="Vector_9" d="M98.8967 26.5133C93.9942 26.5133 92.6219 24.1701 92.6219 20.1983V9.3465H89.728V6.82051H92.6219V0.5H95.7427V6.81497H101.237V9.34096H95.7427V20.0044C95.7427 23.0511 96.9324 23.9817 99.937 23.9817H101.237V26.5077H98.8967V26.5133Z" fill="black"/>
<path id="Vector_10" d="M103.24 3.91784V0.5H106.433V3.91784H103.24ZM103.273 6.81497H106.394V26.5077H103.273V6.81497Z" fill="black"/>
<path id="Vector_11" d="M110.14 26.5133V0.5H113.261V26.5133H110.14ZM123.392 26.5133L116.077 19.3064C115.485 18.7137 114.666 17.5947 114.666 16.3317C114.666 15.0688 115.408 14.1381 116.116 13.4346L122.651 6.82051H126.474L118.495 14.8084C118.163 15.1408 117.826 15.5895 117.826 16.221C117.826 16.93 118.346 17.5615 118.827 18.0434L127.404 26.5188H123.398L123.392 26.5133Z" fill="black"/>
<path id="Vector_12" d="M139.876 6.815C143.368 6.815 145 8.96985 145 12.2049V23.5386C145 25.5439 144.22 26.5133 141.918 26.5133H133.159C129.557 26.5133 128.035 24.58 128.035 20.4919C128.035 16.4038 129.557 14.5093 133.159 14.5093H141.879V12.1661C141.879 10.4932 141.06 9.34099 139.096 9.34099H129.518V6.815H139.876ZM133.751 17.0353C131.82 17.0353 131.3 18.3758 131.3 20.4919C131.3 22.608 131.82 23.9818 133.751 23.9818H140.839C141.547 23.9818 141.879 23.5718 141.879 22.9791V17.0353H133.751Z" fill="black"/>
</g>
</g>
<defs>
<clipPath id="clip0_45_61">
<rect width="145" height="30" fill="white" transform="translate(0 0.5)"/>
</clipPath>
</defs>
</svg>
